<svg width="16" height="16" viewBox="0 0 16 16" fill="none" xmlns="http://www.w3.org/2000/svg">
<path d="M14.08 4.74666C14.4067 5.07333 14.4067 5.6 14.08 5.92666L8.47333 11.5333C8.41165 11.5951 8.33839 11.6442 8.25774 11.6776C8.17709 11.7111 8.09064 11.7283 8.00333 11.7283C7.91601 11.7283 7.82956 11.7111 7.74891 11.6776C7.66826 11.6442 7.595 11.5951 7.53333 11.5333L1.91999 5.92C1.59999 5.6 1.59999 5.06666 1.91999 4.74666C1.9974 4.66906 2.08936 4.60749 2.1906 4.56548C2.29185 4.52347 2.40038 4.50184 2.50999 4.50184C2.6196 4.50184 2.72814 4.52347 2.82938 4.56548C2.93062 4.60749 3.02258 4.66906 3.09999 4.74666L7.99999 9.64L12.9 4.74C13.2267 4.42 13.7533 4.42 14.08 4.74666V4.74666Z" fill="#00ACE5"/>
</svg>
