<svg width="20" height="20" viewBox="0 0 20 20" fill="none" xmlns="http://www.w3.org/2000/svg">
<g clip-path="url(#clip0_1907_28484)">
<path d="M17.5622 9.52977C15.8957 5.8894 13.3768 4.05737 10 4.05737C6.62152 4.05737 4.10434 5.8894 2.43793 9.53159C2.37109 9.67837 2.33643 9.83867 2.33643 10.001C2.33643 10.1633 2.37109 10.3236 2.43793 10.4704C4.10434 14.1108 6.62328 15.9428 10 15.9428C13.3786 15.9428 15.8957 14.1108 17.5622 10.4686C17.6975 10.1733 17.6975 9.83055 17.5622 9.52977V9.52977ZM10 14.6303C7.16469 14.6303 5.08871 13.1391 3.62445 10.0001C5.08871 6.86102 7.16469 5.36987 10 5.36987C12.8354 5.36987 14.9114 6.86102 16.3756 10.0001C14.9131 13.1391 12.8371 14.6303 10 14.6303ZM9.92973 6.79175C8.22113 6.79175 6.83598 8.22821 6.83598 10.0001C6.83598 11.772 8.22113 13.2084 9.92973 13.2084C11.6383 13.2084 13.0235 11.772 13.0235 10.0001C13.0235 8.22821 11.6383 6.79175 9.92973 6.79175ZM9.92973 12.0417C8.84164 12.0417 7.96098 11.1285 7.96098 10.0001C7.96098 8.8717 8.84164 7.95841 9.92973 7.95841C11.0178 7.95841 11.8985 8.8717 11.8985 10.0001C11.8985 11.1285 11.0178 12.0417 9.92973 12.0417Z" fill="#ABA7AF"/>
</g>
<defs>
<clipPath id="clip0_1907_28484">
<rect width="20" height="20" fill="white"/>
</clipPath>
</defs>
</svg>
