<svg width="20" height="20" viewBox="0 0 20 20" fill="none" xmlns="http://www.w3.org/2000/svg">
<g clip-path="url(#clip0_1579_1360)">
<path d="M18.0382 12.7197C18.0799 12.7908 18.1071 12.8695 18.1183 12.9511C18.1295 13.0328 18.1244 13.1159 18.1033 13.1956C18.0822 13.2752 18.0456 13.35 17.9955 13.4155C17.9455 13.4809 17.883 13.5359 17.8116 13.5771C17.7402 13.6183 17.6614 13.645 17.5796 13.6556C17.4979 13.6662 17.4149 13.6606 17.3353 13.639C17.2558 13.6174 17.1813 13.5803 17.1161 13.5298C17.051 13.4793 16.9965 13.4164 16.9557 13.3447L15.5196 10.8573C14.6735 11.424 13.7431 11.8532 12.7628 12.129L13.2169 14.7044C13.2457 14.8677 13.2084 15.0356 13.1133 15.1714C13.0182 15.3072 12.8731 15.3997 12.7099 15.4285C12.6738 15.4348 12.6372 15.438 12.6006 15.438C12.4538 15.4378 12.3118 15.3859 12.1994 15.2915C12.087 15.1971 12.0114 15.0661 11.9858 14.9216L11.5391 12.3882C10.5162 12.5376 9.47698 12.5372 8.45418 12.3871L8.00746 14.9204C7.98196 15.065 7.90638 15.196 7.79398 15.2905C7.68158 15.3849 7.53952 15.4368 7.39269 15.4371C7.35608 15.437 7.31954 15.4339 7.28347 15.4275C7.12023 15.3987 6.9751 15.3063 6.88001 15.1705C6.78493 15.0347 6.74767 14.8667 6.77644 14.7035L7.23066 12.1271C6.25154 11.8508 5.32223 11.4215 4.47715 10.855L3.03262 13.3571C2.99214 13.4292 2.93774 13.4926 2.87258 13.5436C2.80741 13.5945 2.73278 13.632 2.65301 13.6539C2.57323 13.6758 2.4899 13.6817 2.40785 13.6711C2.3258 13.6606 2.24667 13.6339 2.17503 13.5925C2.10338 13.5511 2.04067 13.496 1.99051 13.4302C1.94036 13.3644 1.90377 13.2893 1.88285 13.2092C1.86194 13.1292 1.85712 13.0458 1.86868 12.9639C1.88024 12.882 1.90795 12.8032 1.95019 12.7321L3.4734 10.0938C2.94212 9.63655 2.4536 9.13189 2.01387 8.58605C1.96157 8.52228 1.92241 8.4488 1.89864 8.36983C1.87487 8.29087 1.86696 8.20797 1.87538 8.12594C1.88379 8.0439 1.90835 7.96434 1.94766 7.89184C1.98696 7.81934 2.04022 7.75533 2.10437 7.70351C2.16852 7.65169 2.24229 7.61308 2.32144 7.5899C2.40058 7.56672 2.48353 7.55943 2.5655 7.56845C2.64747 7.57747 2.72685 7.60263 2.79905 7.64247C2.87126 7.68231 2.93487 7.73604 2.98621 7.80058C3.47427 8.40791 4.03126 8.95646 4.64598 9.43519C4.6509 9.43863 4.65535 9.44253 4.66012 9.44613C6.1855 10.6329 8.06754 11.2686 10.0001 11.25C11.9322 11.2686 13.8138 10.6331 15.3389 9.44691C15.3431 9.44378 15.3469 9.44058 15.3511 9.43753C15.967 8.95825 16.5251 8.4089 17.0139 7.80058C17.1186 7.67304 17.2693 7.59202 17.4334 7.57519C17.5975 7.55836 17.7616 7.60709 17.8899 7.71075C18.0183 7.8144 18.1004 7.96458 18.1184 8.12855C18.1365 8.29251 18.089 8.45696 17.9863 8.58605C17.5457 9.13295 17.0561 9.63851 16.5236 10.0964L18.0382 12.7197Z" fill="#ABA7AF"/>
</g>
<defs>
<clipPath id="clip0_1579_1360">
<rect width="20" height="20" fill="white"/>
</clipPath>
</defs>
</svg>
