<svg width="12" height="12" viewBox="0 0 12 12" fill="none" xmlns="http://www.w3.org/2000/svg">
<path d="M6.66129 5.9898L10.3918 2.26928C10.4655 2.18342 10.504 2.07298 10.4997 1.96003C10.4953 1.84708 10.4483 1.73994 10.3682 1.66001C10.2881 1.58008 10.1806 1.53326 10.0674 1.52889C9.95411 1.52453 9.84338 1.56295 9.75729 1.63648L6.02679 5.357L2.29629 1.63199C2.21156 1.54748 2.09663 1.5 1.97679 1.5C1.85696 1.5 1.74203 1.54748 1.65729 1.63199C1.57256 1.7165 1.52495 1.83112 1.52495 1.95063C1.52495 2.07015 1.57256 2.18477 1.65729 2.26928L5.39229 5.9898L1.65729 9.71032C1.61019 9.75056 1.57193 9.80007 1.54492 9.85575C1.51791 9.91143 1.50273 9.97207 1.50034 10.0339C1.49794 10.0957 1.50838 10.1573 1.53101 10.2149C1.55363 10.2725 1.58795 10.3248 1.6318 10.3686C1.67566 10.4123 1.7281 10.4465 1.78585 10.4691C1.8436 10.4916 1.9054 10.5021 1.96737 10.4997C2.02934 10.4973 2.09015 10.4821 2.14598 10.4552C2.20181 10.4283 2.25145 10.3901 2.29179 10.3431L6.02679 6.6226L9.75729 10.3431C9.84338 10.4167 9.95411 10.4551 10.0674 10.4507C10.1806 10.4463 10.2881 10.3995 10.3682 10.3196C10.4483 10.2397 10.4953 10.1325 10.4997 10.0196C10.504 9.90662 10.4655 9.79618 10.3918 9.71032L6.66129 5.9898Z" fill="#ABA7AF"/>
</svg>
